<svg width="55" height="55" viewBox="0 0 55 55" fill="none" xmlns="http://www.w3.org/2000/svg">
<g clip-path="url(#clip0_1442_9836)">
<path d="M42.9969 27.5503C41.7455 27.5503 40.7339 28.5641 40.7339 29.8133V47.9172C40.7339 49.1642 39.7201 50.1802 38.471 50.1802H6.78899C5.53982 50.1802 4.52599 49.1642 4.52599 47.9172V16.2353C4.52599 14.9884 5.53982 13.9723 6.78899 13.9723H24.893C26.1444 13.9723 27.156 12.9585 27.156 11.7093C27.156 10.4601 26.1444 9.44629 24.893 9.44629H6.78899C3.04599 9.44629 0 12.4923 0 16.2353V47.9172C0 51.6602 3.04599 54.7062 6.78899 54.7062H38.471C42.2139 54.7062 45.2599 51.6602 45.2599 47.9172V29.8133C45.2599 28.5618 44.2484 27.5503 42.9969 27.5503Z" fill="#662D91"/>
<path d="M21.2179 25.4891C21.0594 25.6475 20.9531 25.8489 20.9078 26.0661L19.3079 34.0681C19.2332 34.4392 19.3509 34.8217 19.6179 35.091C19.8329 35.3059 20.1226 35.4214 20.419 35.4214C20.4914 35.4214 20.5661 35.4146 20.6408 35.3987L28.6405 33.7988C28.8623 33.7535 29.0637 33.6472 29.2198 33.4888L47.1246 15.5839L39.1249 7.58423L21.2179 25.4891Z" fill="#662D91"/>
<path d="M52.6554 2.05106C50.449 -0.155365 46.8599 -0.155365 44.6557 2.05106L41.5237 5.18304L49.5234 13.1827L52.6554 10.0508C53.7235 8.98488 54.3119 7.56372 54.3119 6.05204C54.3119 4.54035 53.7235 3.11919 52.6554 2.05106Z" fill="#662D91"/>
</g>
<defs>
<clipPath id="clip0_1442_9836">
<rect width="54.3119" height="54.3119" fill="white" transform="translate(0 0.394531)"/>
</clipPath>
</defs>
</svg>
