<svg xmlns="http://www.w3.org/2000/svg" version="1.1" xmlns:xlink="http://www.w3.org/1999/xlink" xmlns:svgjs="http://svgjs.com/svgjs" width="55" height="55"><svg width="55" height="55" viewBox="0 0 55 55" fill="none" xmlns="http://www.w3.org/2000/svg">
<g clip-path="url(#clip0_2737_1028)">
<path d="M42.9969 27.5504C41.7455 27.5504 40.7339 28.5642 40.7339 29.8134V47.9174C40.7339 49.1643 39.7201 50.1804 38.471 50.1804H6.78899C5.53982 50.1804 4.52599 49.1643 4.52599 47.9174V16.2354C4.52599 14.9885 5.53982 13.9724 6.78899 13.9724H24.893C26.1444 13.9724 27.156 12.9586 27.156 11.7094C27.156 10.4602 26.1444 9.44641 24.893 9.44641H6.78899C3.04599 9.44641 0 12.4924 0 16.2354V47.9174C0 51.6604 3.04599 54.7064 6.78899 54.7064H38.471C42.2139 54.7064 45.2599 51.6604 45.2599 47.9174V29.8134C45.2599 28.5619 44.2484 27.5504 42.9969 27.5504Z" fill="#662D91"></path>
<path d="M21.2179 25.4889C21.0594 25.6473 20.9531 25.8488 20.9078 26.066L19.3079 34.068C19.2332 34.4391 19.3509 34.8215 19.6179 35.0908C19.8329 35.3058 20.1226 35.4212 20.419 35.4212C20.4914 35.4212 20.5661 35.4144 20.6408 35.3986L28.6405 33.7987C28.8623 33.7534 29.0637 33.647 29.2198 33.4886L47.1246 15.5838L39.1249 7.58411L21.2179 25.4889Z" fill="#662D91"></path>
<path d="M52.6554 2.05106C50.449 -0.155365 46.8599 -0.155365 44.6557 2.05106L41.5237 5.18304L49.5234 13.1827L52.6554 10.0508C53.7235 8.98488 54.3119 7.56372 54.3119 6.05204C54.3119 4.54035 53.7235 3.11919 52.6554 2.05106Z" fill="#662D91"></path>
</g>
<defs>
<clipPath id="SvgjsClipPath1000">
<rect width="54.3119" height="54.3119" fill="white" transform="translate(0 0.394531)"></rect>
</clipPath>
</defs>
</svg><style>@media (prefers-color-scheme: light) { :root { filter: none; } }
</style></svg>