<svg width="185" height="63" viewBox="0 0 185 63" fill="none" xmlns="http://www.w3.org/2000/svg">
<g clip-path="url(#clip0_1442_9835)">
<path d="M42.9969 30.5503C41.7455 30.5503 40.7339 31.5641 40.7339 32.8133V50.9172C40.7339 52.1642 39.7201 53.1802 38.471 53.1802H6.78899C5.53982 53.1802 4.52599 52.1642 4.52599 50.9172V19.2353C4.52599 17.9884 5.53982 16.9723 6.78899 16.9723H24.893C26.1444 16.9723 27.156 15.9585 27.156 14.7093C27.156 13.4601 26.1444 12.4463 24.893 12.4463H6.78899C3.04599 12.4463 0 15.4923 0 19.2353V50.9172C0 54.6602 3.04599 57.7062 6.78899 57.7062H38.471C42.2139 57.7062 45.2599 54.6602 45.2599 50.9172V32.8133C45.2599 31.5618 44.2484 30.5503 42.9969 30.5503Z" fill="#662D91"/>
<path d="M21.2179 28.4891C21.0594 28.6475 20.9531 28.8489 20.9078 29.0661L19.3079 37.0681C19.2332 37.4392 19.3509 37.8217 19.6179 38.091C19.8329 38.3059 20.1226 38.4214 20.419 38.4214C20.4914 38.4214 20.5661 38.4146 20.6408 38.3987L28.6405 36.7988C28.8623 36.7535 29.0637 36.6472 29.2198 36.4888L47.1246 18.5839L39.1249 10.5842L21.2179 28.4891Z" fill="#662D91"/>
<path d="M52.6554 5.05106C50.449 2.84463 46.8599 2.84463 44.6557 5.05106L41.5237 8.18304L49.5234 16.1827L52.6554 13.0508C53.7235 11.9849 54.3119 10.5637 54.3119 9.05204C54.3119 7.54035 53.7235 6.11919 52.6554 5.05106Z" fill="#662D91"/>
</g>
<path d="M64.638 54.9448L70.1574 40.9731H72.7033L78.2431 54.9448H76.1453L74.7807 51.4824H67.9782L66.6339 54.9448H64.638ZM68.6095 49.8327H74.129L72.4385 45.4538C72.3978 45.3316 72.3367 45.1619 72.2552 44.9446C72.1738 44.7274 72.0855 44.4898 71.9905 44.2318C71.8954 43.9602 71.8004 43.6887 71.7053 43.4171C71.6103 43.132 71.522 42.874 71.4406 42.6432H71.3184C71.2233 42.9147 71.1147 43.227 70.9925 43.5801C70.8703 43.9331 70.7481 44.2793 70.6259 44.6188C70.5037 44.9446 70.4018 45.223 70.3204 45.4538L68.6095 49.8327ZM79.7837 54.9448V44.2318H81.2297L81.3927 45.8408H81.5353C81.8204 45.4063 82.1395 45.0533 82.4925 44.7817C82.8591 44.5101 83.2597 44.3133 83.6942 44.1911C84.1422 44.0553 84.6175 43.9874 85.1198 43.9874C85.7987 43.9874 86.3894 44.1028 86.8918 44.3336C87.4077 44.5645 87.8083 44.9379 88.0934 45.4538C88.3921 45.9698 88.5415 46.669 88.5415 47.5516V54.9448H86.7492V47.796C86.7492 47.3479 86.6881 46.9813 86.5659 46.6962C86.4573 46.4111 86.3011 46.187 86.0975 46.0241C85.9074 45.8612 85.6697 45.7457 85.3846 45.6779C85.1131 45.61 84.8075 45.576 84.4681 45.576C83.9657 45.576 83.4905 45.6982 83.0424 45.9426C82.5943 46.187 82.2345 46.5401 81.963 47.0017C81.705 47.4634 81.576 48.0133 81.576 48.6514V54.9448H79.7837ZM95.5371 55.1892C94.478 55.1892 93.5818 54.9923 92.8486 54.5986C92.129 54.1912 91.5791 53.5734 91.1989 52.7452C90.8323 51.9169 90.649 50.8646 90.649 49.5883C90.649 48.2984 90.8323 47.2461 91.1989 46.4314C91.5791 45.6032 92.1358 44.9922 92.869 44.5984C93.6022 44.1911 94.5187 43.9874 95.6185 43.9874C96.6233 43.9874 97.4651 44.1843 98.144 44.578C98.8229 44.9582 99.3321 45.5353 99.6716 46.3092C100.025 47.0696 100.201 48.0268 100.201 49.181V50.0364H92.5024C92.5295 50.8918 92.6517 51.5979 92.869 52.1545C93.0998 52.6977 93.4393 53.0982 93.8873 53.3562C94.3354 53.6006 94.8989 53.7228 95.5778 53.7228C96.0395 53.7228 96.44 53.6685 96.7795 53.5599C97.1325 53.4377 97.4244 53.2679 97.6552 53.0507C97.8996 52.8334 98.0829 52.5755 98.2051 52.2768C98.3273 51.978 98.3952 51.6522 98.4088 51.2991H100.16C100.147 51.8694 100.038 52.399 99.8345 52.8878C99.6308 53.363 99.3321 53.7703 98.9384 54.1098C98.5446 54.4492 98.0626 54.714 97.4923 54.9041C96.922 55.0942 96.2703 55.1892 95.5371 55.1892ZM92.5431 48.6922H98.3477C98.3477 48.0947 98.2798 47.5923 98.144 47.185C98.0083 46.7777 97.8114 46.445 97.5534 46.187C97.309 45.929 97.0171 45.7457 96.6776 45.6371C96.3517 45.5149 95.9784 45.4538 95.5574 45.4538C94.9328 45.4538 94.4033 45.5692 93.9688 45.8001C93.5343 46.0309 93.2017 46.3839 92.9708 46.8591C92.74 47.3344 92.5974 47.9454 92.5431 48.6922ZM106.166 55.1892C105.432 55.1892 104.787 55.1145 104.231 54.9652C103.674 54.8158 103.212 54.5986 102.846 54.3134C102.479 54.0283 102.201 53.6889 102.011 53.2951C101.821 52.9013 101.726 52.4533 101.726 51.9509C101.726 51.883 101.726 51.8219 101.726 51.7676C101.726 51.6997 101.732 51.6454 101.746 51.6046H103.518C103.504 51.659 103.498 51.7065 103.498 51.7472C103.498 51.7879 103.498 51.8287 103.498 51.8694C103.511 52.3446 103.633 52.718 103.864 52.9896C104.109 53.2612 104.441 53.4512 104.862 53.5599C105.283 53.6685 105.751 53.7228 106.267 53.7228C106.716 53.7228 107.13 53.6685 107.51 53.5599C107.89 53.4377 108.189 53.2612 108.406 53.0303C108.637 52.7859 108.752 52.4804 108.752 52.1138C108.752 51.6657 108.603 51.3263 108.304 51.0955C108.019 50.8511 107.639 50.661 107.164 50.5252C106.688 50.3894 106.193 50.2468 105.677 50.0975C105.242 49.9753 104.808 49.8395 104.373 49.6901C103.939 49.5408 103.545 49.3575 103.192 49.1402C102.853 48.923 102.574 48.6446 102.357 48.3052C102.153 47.9522 102.051 47.5109 102.051 46.9813C102.051 46.5061 102.147 46.0852 102.337 45.7186C102.54 45.352 102.825 45.0397 103.192 44.7817C103.559 44.5237 104 44.3336 104.516 44.2114C105.045 44.0756 105.629 44.0078 106.267 44.0078C106.946 44.0078 107.537 44.0824 108.039 44.2318C108.555 44.3812 108.983 44.5916 109.322 44.8632C109.662 45.1347 109.913 45.447 110.076 45.8001C110.239 46.1395 110.32 46.5061 110.32 46.8999C110.32 46.9813 110.32 47.0628 110.32 47.1443C110.32 47.2122 110.314 47.2665 110.3 47.3072H108.549V47.0832C108.549 46.8116 108.474 46.5536 108.325 46.3092C108.189 46.0512 107.944 45.8476 107.591 45.6982C107.252 45.5353 106.777 45.4538 106.166 45.4538C105.772 45.4538 105.432 45.4878 105.147 45.5556C104.862 45.61 104.625 45.705 104.434 45.8408C104.244 45.963 104.102 46.1123 104.007 46.2889C103.912 46.4518 103.864 46.6419 103.864 46.8591C103.864 47.2122 103.98 47.4837 104.21 47.6738C104.441 47.8639 104.747 48.0201 105.127 48.1423C105.521 48.2645 105.942 48.4002 106.39 48.5496C106.865 48.6854 107.347 48.8279 107.836 48.9773C108.338 49.1131 108.793 49.2896 109.2 49.5068C109.621 49.7241 109.954 50.0228 110.198 50.403C110.456 50.7696 110.585 51.2584 110.585 51.8694C110.585 52.4397 110.477 52.9353 110.259 53.3562C110.042 53.7771 109.73 54.1234 109.322 54.3949C108.929 54.6665 108.46 54.8634 107.917 54.9856C107.388 55.1213 106.804 55.1892 106.166 55.1892ZM115.306 55.1892C114.749 55.1892 114.314 55.0874 114.002 54.8837C113.69 54.6665 113.466 54.3881 113.33 54.0487C113.194 53.6956 113.126 53.3223 113.126 52.9285V45.739H111.741V44.2318H113.167L113.493 41.2379H114.919V44.2318H116.935V45.739H114.919V52.6637C114.919 53.0032 114.98 53.2612 115.102 53.4377C115.224 53.6006 115.455 53.6821 115.794 53.6821H116.935V54.8634C116.799 54.9312 116.636 54.9856 116.446 55.0263C116.256 55.067 116.059 55.101 115.856 55.1281C115.665 55.1689 115.482 55.1892 115.306 55.1892ZM123.124 55.1892C122.065 55.1892 121.169 54.9923 120.436 54.5986C119.716 54.1912 119.166 53.5734 118.786 52.7452C118.419 51.9169 118.236 50.8646 118.236 49.5883C118.236 48.2984 118.419 47.2461 118.786 46.4314C119.166 45.6032 119.723 44.9922 120.456 44.5984C121.189 44.1911 122.106 43.9874 123.205 43.9874C124.21 43.9874 125.052 44.1843 125.731 44.578C126.41 44.9582 126.919 45.5353 127.258 46.3092C127.611 47.0696 127.788 48.0268 127.788 49.181V50.0364H120.089C120.116 50.8918 120.239 51.5979 120.456 52.1545C120.687 52.6977 121.026 53.0982 121.474 53.3562C121.922 53.6006 122.486 53.7228 123.165 53.7228C123.626 53.7228 124.027 53.6685 124.366 53.5599C124.719 53.4377 125.011 53.2679 125.242 53.0507C125.487 52.8334 125.67 52.5755 125.792 52.2768C125.914 51.978 125.982 51.6522 125.996 51.2991H127.747C127.734 51.8694 127.625 52.399 127.421 52.8878C127.218 53.363 126.919 53.7703 126.525 54.1098C126.131 54.4492 125.649 54.714 125.079 54.9041C124.509 55.0942 123.857 55.1892 123.124 55.1892ZM120.13 48.6922H125.935C125.935 48.0947 125.867 47.5923 125.731 47.185C125.595 46.7777 125.398 46.445 125.14 46.187C124.896 45.929 124.604 45.7457 124.265 45.6371C123.939 45.5149 123.565 45.4538 123.144 45.4538C122.52 45.4538 121.99 45.5692 121.556 45.8001C121.121 46.0309 120.789 46.3839 120.558 46.8591C120.327 47.3344 120.184 47.9454 120.13 48.6922ZM133.753 55.1892C133.019 55.1892 132.374 55.1145 131.818 54.9652C131.261 54.8158 130.799 54.5986 130.433 54.3134C130.066 54.0283 129.788 53.6889 129.598 53.2951C129.408 52.9013 129.313 52.4533 129.313 51.9509C129.313 51.883 129.313 51.8219 129.313 51.7676C129.313 51.6997 129.319 51.6454 129.333 51.6046H131.105C131.091 51.659 131.084 51.7065 131.084 51.7472C131.084 51.7879 131.084 51.8287 131.084 51.8694C131.098 52.3446 131.22 52.718 131.451 52.9896C131.695 53.2612 132.028 53.4512 132.449 53.5599C132.87 53.6685 133.338 53.7228 133.854 53.7228C134.302 53.7228 134.717 53.6685 135.097 53.5599C135.477 53.4377 135.776 53.2612 135.993 53.0303C136.224 52.7859 136.339 52.4804 136.339 52.1138C136.339 51.6657 136.19 51.3263 135.891 51.0955C135.606 50.8511 135.226 50.661 134.75 50.5252C134.275 50.3894 133.78 50.2468 133.264 50.0975C132.829 49.9753 132.395 49.8395 131.96 49.6901C131.526 49.5408 131.132 49.3575 130.779 49.1402C130.439 48.923 130.161 48.6446 129.944 48.3052C129.74 47.9522 129.638 47.5109 129.638 46.9813C129.638 46.5061 129.733 46.0852 129.924 45.7186C130.127 45.352 130.412 45.0397 130.779 44.7817C131.146 44.5237 131.587 44.3336 132.103 44.2114C132.632 44.0756 133.216 44.0078 133.854 44.0078C134.533 44.0078 135.124 44.0824 135.626 44.2318C136.142 44.3812 136.57 44.5916 136.909 44.8632C137.249 45.1347 137.5 45.447 137.663 45.8001C137.826 46.1395 137.907 46.5061 137.907 46.8999C137.907 46.9813 137.907 47.0628 137.907 47.1443C137.907 47.2122 137.901 47.2665 137.887 47.3072H136.135V47.0832C136.135 46.8116 136.061 46.5536 135.911 46.3092C135.776 46.0512 135.531 45.8476 135.178 45.6982C134.839 45.5353 134.364 45.4538 133.753 45.4538C133.359 45.4538 133.019 45.4878 132.734 45.5556C132.449 45.61 132.211 45.705 132.021 45.8408C131.831 45.963 131.689 46.1123 131.594 46.2889C131.499 46.4518 131.451 46.6419 131.451 46.8591C131.451 47.2122 131.566 47.4837 131.797 47.6738C132.028 47.8639 132.334 48.0201 132.714 48.1423C133.108 48.2645 133.528 48.4002 133.977 48.5496C134.452 48.6854 134.934 48.8279 135.423 48.9773C135.925 49.1131 136.38 49.2896 136.787 49.5068C137.208 49.7241 137.541 50.0228 137.785 50.403C138.043 50.7696 138.172 51.2584 138.172 51.8694C138.172 52.4397 138.064 52.9353 137.846 53.3562C137.629 53.7771 137.317 54.1234 136.909 54.3949C136.516 54.6665 136.047 54.8634 135.504 54.9856C134.975 55.1213 134.391 55.1892 133.753 55.1892ZM140.387 42.2155V40.2195H142.18V42.2155H140.387ZM140.387 54.9448V44.2318H142.18V54.9448H140.387ZM155.227 55.1892C154.045 55.1892 153.027 54.9991 152.172 54.619C151.316 54.2388 150.658 53.6413 150.196 52.8267C149.748 51.9984 149.524 50.9393 149.524 49.6494V40.9731H151.459V49.8531C151.459 51.0751 151.785 51.9916 152.436 52.6026C153.102 53.2136 154.032 53.5191 155.227 53.5191C156.435 53.5191 157.379 53.2136 158.058 52.6026C158.737 51.9916 159.076 51.0751 159.076 49.8531V40.9731H160.99V49.6494C160.99 50.9393 160.76 51.9984 160.298 52.8267C159.836 53.6413 159.171 54.2388 158.302 54.619C157.447 54.9991 156.421 55.1892 155.227 55.1892ZM164.462 54.9448V40.9731H166.397V54.9448H164.462Z" fill="#4C4C4C"/>
<path d="M66.5593 28V9.37101H70.6055V24.5512H80.0015V28H66.5593ZM88.8494 28.3259C87.2925 28.3259 85.9709 28.0634 84.8847 27.5383C83.7984 26.9952 82.9747 26.1715 82.4135 25.0672C81.8522 23.9447 81.5716 22.5417 81.5716 20.858C81.5716 19.1381 81.8522 17.735 82.4135 16.6488C82.9747 15.5445 83.7984 14.7298 84.8847 14.2048C85.9709 13.6616 87.2925 13.3901 88.8494 13.3901C90.4426 13.3901 91.7732 13.6616 92.8414 14.2048C93.9276 14.7298 94.7513 15.5445 95.3126 16.6488C95.8738 17.735 96.1544 19.1381 96.1544 20.858C96.1544 22.5417 95.8738 23.9447 95.3126 25.0672C94.7513 26.1715 93.9276 26.9952 92.8414 27.5383C91.7732 28.0634 90.4426 28.3259 88.8494 28.3259ZM88.8494 25.393C89.6822 25.393 90.343 25.2391 90.8318 24.9314C91.3387 24.6236 91.7099 24.1529 91.9452 23.5193C92.1806 22.8856 92.2982 22.1072 92.2982 21.1839V20.5321C92.2982 19.6088 92.1806 18.8303 91.9452 18.1967C91.7099 17.5631 91.3387 17.0924 90.8318 16.7846C90.343 16.4587 89.6822 16.2958 88.8494 16.2958C88.0348 16.2958 87.374 16.4587 86.8671 16.7846C86.3782 17.0924 86.0162 17.5631 85.7808 18.1967C85.5455 18.8303 85.4278 19.6088 85.4278 20.5321V21.1839C85.4278 22.1072 85.5455 22.8856 85.7808 23.5193C86.0162 24.1529 86.3782 24.6236 86.8671 24.9314C87.374 25.2391 88.0348 25.393 88.8494 25.393ZM101.267 33.1053C100.634 33.1053 100.036 32.9695 99.4751 32.698C98.9138 32.4445 98.4612 32.0643 98.1173 31.5574C97.7733 31.0505 97.6013 30.444 97.6013 29.738C97.6013 28.9414 97.8276 28.3078 98.2802 27.8371C98.7509 27.3483 99.2759 26.9862 99.8552 26.7508C99.4388 26.5155 99.0949 26.2077 98.8233 25.8275C98.5699 25.4473 98.4431 25.0038 98.4431 24.4969C98.4431 23.7908 98.6966 23.2205 99.2035 22.7861C99.7285 22.3335 100.326 22.0438 100.996 21.9171C100.326 21.5007 99.8009 20.9757 99.4207 20.342C99.0587 19.6903 98.8776 18.9661 98.8776 18.1695C98.8776 17.1376 99.1311 16.2686 99.638 15.5626C100.163 14.8565 100.905 14.3224 101.865 13.9604C102.842 13.5802 103.992 13.3901 105.314 13.3901C105.839 13.3901 106.327 13.4172 106.78 13.4716C107.251 13.5259 107.676 13.6164 108.056 13.7431C108.726 13.3448 109.179 12.9103 109.414 12.4396C109.668 11.9508 109.803 11.5616 109.821 11.2719H113.325C113.325 11.9418 113.198 12.5211 112.944 13.0099C112.709 13.4987 112.365 13.9061 111.912 14.2319C111.46 14.5397 110.917 14.766 110.283 14.9108C110.754 15.3091 111.116 15.7889 111.369 16.3501C111.623 16.9113 111.75 17.5178 111.75 18.1695C111.75 19.1834 111.505 20.0524 111.016 20.7765C110.528 21.4826 109.831 22.0257 108.925 22.4059C108.038 22.7861 106.97 22.9761 105.721 22.9761H103.548C103.114 22.9761 102.788 23.0576 102.571 23.2205C102.354 23.3654 102.245 23.5826 102.245 23.8723C102.245 24.1076 102.335 24.3158 102.517 24.4969C102.716 24.6598 103.032 24.7413 103.467 24.7413H109.414C110.609 24.7413 111.559 25.1124 112.266 25.8547C112.99 26.5788 113.352 27.5112 113.352 28.6517C113.352 29.5207 113.125 30.2902 112.673 30.96C112.22 31.6298 111.596 32.1549 110.799 32.535C110.003 32.9152 109.088 33.1053 108.056 33.1053H101.267ZM102.842 30.5798H107.866C108.192 30.5798 108.482 30.5165 108.735 30.3897C108.989 30.2811 109.188 30.1182 109.333 29.9009C109.478 29.7018 109.55 29.4664 109.55 29.1949C109.55 28.7242 109.405 28.3711 109.115 28.1358C108.826 27.9004 108.464 27.7828 108.029 27.7828H102.842C102.408 27.7828 102.046 27.9095 101.756 28.1629C101.485 28.4164 101.349 28.7513 101.349 29.1677C101.349 29.5841 101.485 29.919 101.756 30.1725C102.046 30.444 102.408 30.5798 102.842 30.5798ZM105.314 20.5321C106.201 20.5321 106.871 20.333 107.323 19.9347C107.794 19.5183 108.029 18.9299 108.029 18.1695C108.029 17.4092 107.794 16.8298 107.323 16.4316C106.871 16.0152 106.201 15.807 105.314 15.807C104.445 15.807 103.775 16.0152 103.304 16.4316C102.851 16.8298 102.625 17.4092 102.625 18.1695C102.625 18.6583 102.725 19.0838 102.924 19.4459C103.123 19.8079 103.422 20.0795 103.82 20.2605C104.218 20.4416 104.716 20.5321 105.314 20.5321ZM123.411 28.3259C122.488 28.3259 121.637 28.1448 120.858 27.7828C120.098 27.4026 119.482 26.8323 119.012 26.0719H118.822L118.523 28H115.427V8.36624H119.202V15.291H119.365C119.654 14.8746 120.007 14.5216 120.424 14.2319C120.84 13.9423 121.311 13.7341 121.836 13.6073C122.361 13.4625 122.931 13.3901 123.547 13.3901C124.669 13.3901 125.647 13.6526 126.48 14.1776C127.33 14.7026 127.991 15.5173 128.462 16.6216C128.933 17.7079 129.168 19.1109 129.168 20.8308C129.168 22.5507 128.933 23.9628 128.462 25.0672C128.009 26.1715 127.349 26.9952 126.48 27.5383C125.629 28.0634 124.606 28.3259 123.411 28.3259ZM122.243 25.2301C123.004 25.2301 123.601 25.0853 124.036 24.7956C124.488 24.4878 124.814 24.0352 125.013 23.4378C125.212 22.8404 125.312 22.0891 125.312 21.1839V20.5593C125.312 19.6541 125.212 18.9028 125.013 18.3053C124.814 17.6898 124.488 17.2372 124.036 16.9475C123.601 16.6398 123.004 16.4859 122.243 16.4859C121.7 16.4859 121.238 16.5854 120.858 16.7846C120.478 16.9656 120.161 17.2372 119.908 17.5993C119.672 17.9432 119.491 18.3777 119.365 18.9028C119.238 19.4278 119.175 20.0071 119.175 20.6407V21.1295C119.175 21.9804 119.283 22.7136 119.5 23.3292C119.718 23.9447 120.053 24.4154 120.505 24.7413C120.958 25.0672 121.537 25.2301 122.243 25.2301ZM138.52 28.3259C136.964 28.3259 135.642 28.0634 134.556 27.5383C133.469 26.9952 132.646 26.1715 132.084 25.0672C131.523 23.9447 131.243 22.5417 131.243 20.858C131.243 19.1381 131.523 17.735 132.084 16.6488C132.646 15.5445 133.469 14.7298 134.556 14.2048C135.642 13.6616 136.964 13.3901 138.52 13.3901C140.114 13.3901 141.444 13.6616 142.512 14.2048C143.599 14.7298 144.422 15.5445 144.984 16.6488C145.545 17.735 145.825 19.1381 145.825 20.858C145.825 22.5417 145.545 23.9447 144.984 25.0672C144.422 26.1715 143.599 26.9952 142.512 27.5383C141.444 28.0634 140.114 28.3259 138.52 28.3259ZM138.52 25.393C139.353 25.393 140.014 25.2391 140.503 24.9314C141.01 24.6236 141.381 24.1529 141.616 23.5193C141.852 22.8856 141.969 22.1072 141.969 21.1839V20.5321C141.969 19.6088 141.852 18.8303 141.616 18.1967C141.381 17.5631 141.01 17.0924 140.503 16.7846C140.014 16.4587 139.353 16.2958 138.52 16.2958C137.706 16.2958 137.045 16.4587 136.538 16.7846C136.049 17.0924 135.687 17.5631 135.452 18.1967C135.216 18.8303 135.099 19.6088 135.099 20.5321V21.1839C135.099 22.1072 135.216 22.8856 135.452 23.5193C135.687 24.1529 136.049 24.6236 136.538 24.9314C137.045 25.2391 137.706 25.393 138.52 25.393ZM155.175 28.3259C153.618 28.3259 152.296 28.0634 151.21 27.5383C150.124 26.9952 149.3 26.1715 148.739 25.0672C148.178 23.9447 147.897 22.5417 147.897 20.858C147.897 19.1381 148.178 17.735 148.739 16.6488C149.3 15.5445 150.124 14.7298 151.21 14.2048C152.296 13.6616 153.618 13.3901 155.175 13.3901C156.768 13.3901 158.098 13.6616 159.167 14.2048C160.253 14.7298 161.077 15.5445 161.638 16.6488C162.199 17.735 162.48 19.1381 162.48 20.858C162.48 22.5417 162.199 23.9447 161.638 25.0672C161.077 26.1715 160.253 26.9952 159.167 27.5383C158.098 28.0634 156.768 28.3259 155.175 28.3259ZM155.175 25.393C156.007 25.393 156.668 25.2391 157.157 24.9314C157.664 24.6236 158.035 24.1529 158.27 23.5193C158.506 22.8856 158.624 22.1072 158.624 21.1839V20.5321C158.624 19.6088 158.506 18.8303 158.27 18.1967C158.035 17.5631 157.664 17.0924 157.157 16.7846C156.668 16.4587 156.007 16.2958 155.175 16.2958C154.36 16.2958 153.699 16.4587 153.192 16.7846C152.704 17.0924 152.341 17.5631 152.106 18.1967C151.871 18.8303 151.753 19.6088 151.753 20.5321V21.1839C151.753 22.1072 151.871 22.8856 152.106 23.5193C152.341 24.1529 152.704 24.6236 153.192 24.9314C153.699 25.2391 154.36 25.393 155.175 25.393ZM165.257 28V8.33908H169.032V19.6631L174.029 13.716H178.455L173.567 19.3101L178.699 28H174.382L171.096 21.9714L169.032 23.9809V28H165.257Z" fill="#662D91"/>
<defs>
<clipPath id="clip0_1442_9835">
<rect width="54.3119" height="54.3119" fill="white" transform="translate(0 3.39453)"/>
</clipPath>
</defs>
</svg>
